<!-- Favicon de Franko's Style -->
<svg xmlns="http://www.w3.org/2000/svg" viewBox="0 0 100 100" width="100%" height="100%">
  <circle cx="50" cy="50" r="45" fill="#1a0933" stroke="#7a42f5" stroke-width="1"/>
  <!-- Traje y corbata simplificado -->
  <path fill="#7a42f5" d="M50,30 C48,34 44,40 50,50 C56,40 52,34 50,30 Z"/>
  <path fill="#7a42f5" d="M42,34 C40,44 40,64 50,76 C60,64 60,44 58,34 C54,36 46,36 42,34 Z"/>
  <!-- Cuello de la camisa simplificado -->
  <path fill="#7a42f5" d="M44,34 L40,24 L50,30 L60,24 L56,34 C52,36 48,36 44,34 Z"/>
  <!-- Solapas del traje simplificadas -->
  <path fill="#7a42f5" d="M40,24 L38,40 L46,35 Z"/>
  <path fill="#7a42f5" d="M60,24 L62,40 L54,35 Z"/>
  <!-- Rayos simplificados -->
  <path fill="#7a42f5" d="M34,38 L42,46 L36,52 L44,60 L38,66 Z"/>
  <path fill="#7a42f5" d="M66,38 L58,46 L64,52 L56,60 L62,66 Z"/>
  <!-- Línea decorativa simplificada -->
  <path stroke="#7a42f5" stroke-width="1" fill="none" d="M62,66 L74,66"/>
</svg>